<svg xmlns="http://www.w3.org/2000/svg" viewBox="0 0 576 512">
  <path fill="#2563eb" d="M12.97 371.1c-12.19-7.156-16.34-22.84-9.188-35.03c7.156-12.16 22.84-16.34 35.03-9.188C94.06 359.8 155.5 384 224 384V256H160c-17.67 0-32-14.33-32-32s14.33-32 32-32h64V122.8C194.4 113.1 176 84.7 176 51.1C176 23.23 199.2 0 228 0s52 23.23 52 51.1c0 33.6-18.4 62-48 71.7V192h64c17.67 0 32 14.33 32 32s-14.33 32-32 32h-64v128c68.5 0 129.9-24.22 185.2-57.12c12.19-7.156 27.88-2.969 35.03 9.188c7.156 12.19 2.969 27.88-9.188 35.03C372.2 433.9 299.1 464 224 464s-148.2-30.12-211-72.9zM228 32c-11.05 0-20 8.953-20 20s8.953 20 20 20s20-8.953 20-20s-8.953-20-20-20z"/>
</svg>
